<svg xmlns="http://www.w3.org/2000/svg" viewBox="0 0 128 128" role="img" aria-label="Buick logo">
<path d="M 55 0 L 54 1 L 49 1 L 48 2 L 42 3 L 30 9 L 24 14 L 23 14 L 9 29 L 8 32 L 5 36 L 5 38 L 3 41 L 3 43 L 1 47 L 1 51 L 0 52 L 0 74 L 1 75 L 2 83 L 4 86 L 5 91 L 8 97 L 11 100 L 11 101 L 25 115 L 26 115 L 29 118 L 32 119 L 36 122 L 38 122 L 41 124 L 43 124 L 47 126 L 51 126 L 52 127 L 73 127 L 74 126 L 78 126 L 79 125 L 85 124 L 88 122 L 90 122 L 96 119 L 103 113 L 104 113 L 114 103 L 114 102 L 117 99 L 118 96 L 120 94 L 125 82 L 126 74 L 127 73 L 127 55 L 126 54 L 126 50 L 125 49 L 124 43 L 122 40 L 122 38 L 118 30 L 111 22 L 111 21 L 100 11 L 90 5 L 88 5 L 85 3 L 79 2 L 78 1 L 73 1 L 72 0 Z M 37 101 L 38 100 L 39 101 L 38 102 Z M 36 99 L 37 98 L 38 99 L 37 100 Z M 35 98 L 36 97 L 37 98 L 36 99 Z M 34 96 L 35 95 L 36 96 L 35 97 Z M 88 84 L 89 83 L 90 84 L 89 85 Z M 30 49 L 36 61 L 38 63 L 41 70 L 43 72 L 47 80 L 49 81 L 48 82 L 48 85 L 47 86 L 47 89 L 46 90 L 44 88 L 31 62 L 29 61 L 29 50 Z M 55 41 L 58 47 L 60 49 L 61 52 L 63 54 L 65 59 L 70 66 L 71 69 L 74 71 L 74 73 L 71 80 L 67 75 L 64 68 L 62 66 L 57 56 L 54 53 L 54 42 Z M 79 31 L 84 41 L 86 43 L 89 50 L 91 52 L 94 59 L 98 64 L 97 70 L 95 72 L 80 45 L 79 46 L 78 45 L 78 32 Z M 104 25 L 109 30 L 109 31 L 113 36 L 117 44 L 118 50 L 119 51 L 119 55 L 120 56 L 120 70 L 119 71 L 118 79 L 117 80 L 116 85 L 109 97 L 93 112 L 83 117 L 81 117 L 77 119 L 73 119 L 72 120 L 56 120 L 55 119 L 51 119 L 50 118 L 47 118 L 46 117 L 39 115 L 38 114 L 45 105 L 49 97 L 49 95 L 51 92 L 51 90 L 53 86 L 56 93 L 58 95 L 59 98 L 61 100 L 63 104 L 64 104 L 66 102 L 67 99 L 69 97 L 76 83 L 76 80 L 78 78 L 86 93 L 88 95 L 89 95 L 91 93 L 100 76 L 100 74 L 102 70 L 102 66 L 103 65 L 103 26 Z M 85 11 L 95 17 L 104 25 L 103 26 L 74 26 L 74 33 L 73 34 L 49 34 L 49 42 L 48 43 L 24 43 L 24 79 L 25 80 L 25 85 L 26 86 L 27 92 L 30 97 L 30 99 L 32 103 L 34 105 L 35 108 L 39 113 L 37 114 L 31 109 L 30 109 L 17 96 L 17 95 L 13 90 L 11 86 L 11 84 L 9 81 L 8 73 L 7 72 L 7 56 L 8 55 L 8 51 L 9 50 L 10 44 L 19 29 L 30 18 L 31 18 L 34 15 L 44 10 L 46 10 L 50 8 L 54 8 L 55 7 L 70 7 L 71 8 L 75 8 L 76 9 L 79 9 L 80 10 Z" fill="#17202a" fill-rule="evenodd"/>
</svg>
