<svg xmlns="http://www.w3.org/2000/svg" viewBox="0 0 64 64" role="img" aria-label="Car"><rect width="64" height="64" rx="14" fill="#f5f3ee"/><path d="M12 38l5-13c1.1-2.8 3.4-4 6.4-4h17.2c3 0 5.3 1.2 6.4 4l5 13h2c3.3 0 6 2.7 6 6v5c0 1.7-1.3 3-3 3h-3.5a7 7 0 0 1-13.5 0H24a7 7 0 0 1-13.5 0H7c-1.7 0-3-1.3-3-3v-5c0-3.3 2.7-6 6-6h2zm8-4h24l-2.7-7c-.4-1.1-1.3-1.6-2.7-1.6H25.4c-1.4 0-2.3.5-2.7 1.6L20 34zm-2.5 15a3.5 3.5 0 1 0 0-7 3.5 3.5 0 0 0 0 7zm29 0a3.5 3.5 0 1 0 0-7 3.5 3.5 0 0 0 0 7z" fill="#255b4c"/></svg>