<svg xmlns="http://www.w3.org/2000/svg" viewBox="0 0 128 128" role="img" aria-label="Toyota logo">
<path d="M 0 57 L 0 69 L 1 70 L 2 75 L 7 83 L 14 90 L 30 99 L 32 99 L 39 102 L 42 102 L 43 103 L 47 103 L 48 104 L 79 104 L 80 103 L 84 103 L 85 102 L 88 102 L 89 101 L 97 99 L 109 93 L 112 90 L 113 90 L 122 81 L 127 70 L 127 58 L 126 57 L 125 52 L 121 45 L 113 37 L 112 37 L 107 33 L 99 29 L 97 29 L 94 27 L 88 26 L 87 25 L 84 25 L 83 24 L 78 24 L 77 23 L 50 23 L 49 24 L 44 24 L 43 25 L 40 25 L 39 26 L 28 29 L 13 38 L 5 46 L 2 51 L 2 53 Z M 55 64 L 72 64 L 73 65 L 73 72 L 72 73 L 72 76 L 71 77 L 70 82 L 68 84 L 68 85 L 65 87 L 62 87 L 58 83 L 55 77 L 55 73 L 54 72 L 54 65 Z M 112 45 L 115 49 L 117 56 L 118 57 L 118 67 L 117 68 L 116 73 L 113 78 L 103 88 L 102 88 L 97 92 L 85 97 L 82 97 L 81 98 L 78 98 L 77 99 L 71 100 L 70 99 L 75 91 L 75 89 L 77 86 L 77 83 L 78 82 L 78 77 L 79 76 L 79 64 L 83 62 L 87 62 L 91 60 L 94 60 L 99 57 L 101 57 L 109 50 L 110 47 Z M 15 45 L 17 46 L 18 50 L 26 57 L 30 59 L 35 60 L 36 61 L 44 62 L 48 64 L 48 73 L 49 74 L 50 85 L 53 91 L 53 93 L 57 98 L 56 100 L 54 99 L 49 99 L 48 98 L 45 98 L 44 97 L 36 95 L 28 91 L 21 85 L 20 85 L 14 78 L 10 70 L 10 67 L 9 66 L 9 58 L 10 57 L 11 51 Z M 62 38 L 65 38 L 69 42 L 72 49 L 72 52 L 73 53 L 72 54 L 56 54 L 55 53 L 56 46 L 58 42 Z M 67 29 L 68 28 L 75 28 L 76 29 L 80 29 L 81 30 L 85 30 L 86 31 L 91 32 L 99 37 L 100 39 L 100 43 L 95 48 L 91 50 L 79 53 L 78 52 L 76 41 L 71 32 Z M 61 29 L 55 34 L 51 42 L 50 49 L 48 53 L 37 50 L 31 47 L 27 43 L 27 39 L 32 34 L 36 32 L 38 32 L 45 29 L 50 29 L 51 28 L 60 28 Z" fill="#17202a" fill-rule="evenodd"/>
</svg>
