<svg width="60" height="58" viewBox="0 0 60 58" fill="none" xmlns="http://www.w3.org/2000/svg">
<g clip-path="url(#clip0_81_485)">
<path d="M57.8072 24.0573C60.7583 13.6084 43.0568 1.2002 29.9054 1.2002C16.7539 1.2002 0.461529 13.0406 2.27186 24.0573C3.345 30.5879 17.8325 33.2002 29.9054 33.2002C41.9783 33.2002 55.5576 32.0223 57.8072 24.0573Z" fill="white" style="fill:white;fill:white;fill-opacity:1;"/>
<path fill-rule="evenodd" clip-rule="evenodd" d="M29.7566 0.0668335C43.8004 0.0668335 62.7031 13.7417 59.5517 25.2573C57.1495 34.0354 42.6487 35.3335 29.7566 35.3335C16.8644 35.3335 1.3939 32.4546 0.247937 25.2573C-1.68524 13.1159 15.7127 0.0668335 29.7566 0.0668335ZM28.7183 15.469C31.5803 15.469 33.9004 13.2134 33.9004 10.4309C33.9004 7.64848 31.5803 5.39284 28.7183 5.39284C25.8564 5.39284 23.5363 7.64848 23.5363 10.4309C23.5363 13.2134 25.8564 15.469 28.7183 15.469ZM46.2796 24.2499C46.2796 27.0324 43.9595 29.288 41.0976 29.288C38.2356 29.288 35.9155 27.0324 35.9155 24.2499C35.9155 21.4675 38.2356 19.2118 41.0976 19.2118C43.9595 19.2118 46.2796 21.4675 46.2796 24.2499ZM11.7327 27.5605C14.5947 27.5605 16.9147 25.3048 16.9147 22.5224C16.9147 19.7399 14.5947 17.4843 11.7327 17.4843C8.87074 17.4843 6.55066 19.7399 6.55066 22.5224C6.55066 25.3048 8.87074 27.5605 11.7327 27.5605ZM30.0344 24.3937C30.0344 25.9837 28.7087 27.2727 27.0733 27.2727C25.4379 27.2727 24.1121 25.9837 24.1121 24.3937C24.1121 22.8038 25.4379 21.5148 27.0733 21.5148C28.7087 21.5148 30.0344 22.8038 30.0344 24.3937ZM14.1182 13.4538C15.7536 13.4538 17.0793 12.1649 17.0793 10.5749C17.0793 8.98496 15.7536 7.69602 14.1182 7.69602C12.4828 7.69602 11.157 8.98496 11.157 10.5749C11.157 12.1649 12.4828 13.4538 14.1182 13.4538ZM45.5804 10.2872C45.5804 11.8772 44.2547 13.1661 42.6192 13.1661C40.9838 13.1661 39.6581 11.8772 39.6581 10.2872C39.6581 8.69722 40.9838 7.40829 42.6192 7.40829C44.2547 7.40829 45.5804 8.69722 45.5804 10.2872ZM52.1198 22.0907C53.7552 22.0907 55.0809 20.8018 55.0809 19.2118C55.0809 17.6219 53.7552 16.3329 52.1198 16.3329C50.4844 16.3329 49.1586 17.6219 49.1586 19.2118C49.1586 20.8018 50.4844 22.0907 52.1198 22.0907Z" fill="#FF0000" style="fill:#FF0000;fill:color(display-p3 1.0000 0.0000 0.0000);fill-opacity:1;"/>
<path d="M36.0089 37.8C31.4619 38.282 28.5902 38.282 23.804 37.8C23.804 37.8 11.8753 57.8 30.2654 57.8C48.0669 57.8 36.0089 37.8 36.0089 37.8Z" fill="white" style="fill:white;fill:white;fill-opacity:1;"/>
<circle cx="30.05" cy="20.05" r="0.3" fill="black" stroke="black" style="fill:black;fill:black;fill-opacity:1;stroke:black;stroke:black;stroke-opacity:1;" stroke-width="0.5"/>
</g>
<defs>
<clipPath id="clip0_81_485">
<rect width="60" height="58" fill="white" style="fill:white;fill:white;fill-opacity:1;"/>
</clipPath>
</defs>
</svg>
