<svg width="60" height="60" viewBox="0 0 60 60" fill="none" xmlns="http://www.w3.org/2000/svg">
<g clip-path="url(#clip0_81_485)">
<path d="M57.8072 24.4905C60.7583 14.0415 43.0568 1.63336 29.9054 1.63336C16.7539 1.63336 0.461529 13.4737 2.27186 24.4905C3.345 31.0211 17.8325 33.6334 29.9054 33.6334C41.9783 33.6334 55.5576 32.4555 57.8072 24.4905Z" fill="white" style="fill:white;fill:white;fill-opacity:1;"/>
<path fill-rule="evenodd" clip-rule="evenodd" d="M29.7566 0.5C43.8004 0.5 62.7031 14.1748 59.5517 25.6905C57.1495 34.4685 42.6487 35.7667 29.7566 35.7667C16.8644 35.7667 1.3939 32.8878 0.247937 25.6905C-1.68524 13.5491 15.7127 0.5 29.7566 0.5ZM28.7183 15.9022C31.5803 15.9022 33.9004 13.6466 33.9004 10.8641C33.9004 8.08164 31.5803 5.82601 28.7183 5.82601C25.8564 5.82601 23.5363 8.08164 23.5363 10.8641C23.5363 13.6466 25.8564 15.9022 28.7183 15.9022ZM46.2796 24.6831C46.2796 27.4656 43.9595 29.7212 41.0976 29.7212C38.2356 29.7212 35.9155 27.4656 35.9155 24.6831C35.9155 21.9006 38.2356 19.645 41.0976 19.645C43.9595 19.645 46.2796 21.9006 46.2796 24.6831ZM11.7327 27.9936C14.5947 27.9936 16.9147 25.738 16.9147 22.9556C16.9147 20.1731 14.5947 17.9175 11.7327 17.9175C8.87074 17.9175 6.55066 20.1731 6.55066 22.9556C6.55066 25.738 8.87074 27.9936 11.7327 27.9936ZM30.0344 24.8269C30.0344 26.4169 28.7087 27.7058 27.0733 27.7058C25.4379 27.7058 24.1121 26.4169 24.1121 24.8269C24.1121 23.2369 25.4379 21.948 27.0733 21.948C28.7087 21.948 30.0344 23.2369 30.0344 24.8269ZM14.1182 13.887C15.7536 13.887 17.0793 12.5981 17.0793 11.0081C17.0793 9.41812 15.7536 8.12919 14.1182 8.12919C12.4828 8.12919 11.157 9.41812 11.157 11.0081C11.157 12.5981 12.4828 13.887 14.1182 13.887ZM45.5804 10.7204C45.5804 12.3104 44.2547 13.5993 42.6192 13.5993C40.9838 13.5993 39.6581 12.3104 39.6581 10.7204C39.6581 9.13039 40.9838 7.84146 42.6192 7.84146C44.2547 7.84146 45.5804 9.13039 45.5804 10.7204ZM52.1198 22.5239C53.7552 22.5239 55.0809 21.235 55.0809 19.645C55.0809 18.055 53.7552 16.7661 52.1198 16.7661C50.4844 16.7661 49.1586 18.055 49.1586 19.645C49.1586 21.235 50.4844 22.5239 52.1198 22.5239Z" fill="#FF0000" style="fill:#FF0000;fill:color(display-p3 1.0000 0.0000 0.0000);fill-opacity:1;"/>
<path d="M36.0089 39C31.4619 39.494 28.5902 39.494 23.804 39C23.804 39 11.8753 59.5 30.2654 59.5C48.0669 59.5 36.0089 39 36.0089 39Z" fill="white" style="fill:white;fill:white;fill-opacity:1;"/>
</g>
<defs>
<clipPath id="clip0_81_485">
<rect width="60" height="60" fill="white" style="fill:white;fill:white;fill-opacity:1;"/>
</clipPath>
</defs>
</svg>
