<svg width="64" height="64" viewBox="0 0 64 64" fill="none" xmlns="http://www.w3.org/2000/svg">
<path d="M61.6089 27.0571C64.7757 15.5415 45.7807 1.86664 31.6682 1.86664C17.5557 1.86664 0.0727645 14.9157 2.01538 27.0571C3.16694 34.2544 18.7131 37.1333 31.6682 37.1333C44.6233 37.1333 59.1949 35.8352 61.6089 27.0571Z" fill="white" style="fill:white;fill:white;fill-opacity:1;"/>
<path fill-rule="evenodd" clip-rule="evenodd" d="M31.7547 1.86664C45.9082 1.86664 64.9584 15.5415 61.7824 27.0571C59.3614 35.8352 44.7475 37.1333 31.7547 37.1333C18.762 37.1333 3.17072 34.2544 2.01582 27.0571C0.0675553 14.9157 17.6013 1.86664 31.7547 1.86664ZM30.5354 17.2689C33.3974 17.2689 35.7175 15.0132 35.7175 12.2308C35.7175 9.4483 33.3974 7.19267 30.5354 7.19267C27.6735 7.19267 25.3534 9.4483 25.3534 12.2308C25.3534 15.0132 27.6735 17.2689 30.5354 17.2689ZM48.0967 26.0498C48.0967 28.8322 45.7766 31.0878 42.9147 31.0878C40.0527 31.0878 37.7326 28.8322 37.7326 26.0498C37.7326 23.2673 40.0527 21.0117 42.9147 21.0117C45.7766 21.0117 48.0967 23.2673 48.0967 26.0498ZM13.5498 29.3603C16.4118 29.3603 18.7319 27.1047 18.7319 24.3222C18.7319 21.5397 16.4118 19.2841 13.5498 19.2841C10.6878 19.2841 8.36776 21.5397 8.36776 24.3222C8.36776 27.1047 10.6878 29.3603 13.5498 29.3603ZM31.8515 26.1936C31.8515 27.7835 30.5258 29.0725 28.8904 29.0725C27.255 29.0725 25.9292 27.7835 25.9292 26.1936C25.9292 24.6036 27.255 23.3147 28.8904 23.3147C30.5258 23.3147 31.8515 24.6036 31.8515 26.1936ZM15.9353 15.2537C17.5707 15.2537 18.8965 13.9647 18.8965 12.3748C18.8965 10.7848 17.5707 9.49585 15.9353 9.49585C14.2999 9.49585 12.9741 10.7848 12.9741 12.3748C12.9741 13.9647 14.2999 15.2537 15.9353 15.2537ZM47.3975 12.087C47.3975 13.677 46.0718 14.9659 44.4364 14.9659C42.8009 14.9659 41.4752 13.677 41.4752 12.087C41.4752 10.4971 42.8009 9.20812 44.4364 9.20812C46.0718 9.20812 47.3975 10.4971 47.3975 12.087ZM53.9369 23.8906C55.5723 23.8906 56.8981 22.6016 56.8981 21.0117C56.8981 19.4217 55.5723 18.1327 53.9369 18.1327C52.3015 18.1327 50.9757 19.4217 50.9757 21.0117C50.9757 22.6016 52.3015 23.8906 53.9369 23.8906Z" fill="#FF0000" style="fill:#FF0000;fill:color(display-p3 1.0000 0.0000 0.0000);fill-opacity:1;"/>
<circle cx="31.9167" cy="21.9166" r="0.3" fill="black" stroke="black" style="fill:black;fill:black;fill-opacity:1;stroke:black;stroke:black;stroke-opacity:1;" stroke-width="0.5"/>
<path d="M38.5346 40C33.4679 40.5333 30.2679 40.5333 24.9346 40C24.9346 40 11.6424 62.1333 32.1346 62.1333C51.9709 62.1333 38.5346 40 38.5346 40Z" fill="white" style="fill:white;fill:white;fill-opacity:1;"/>
</svg>
