<svg width="64" height="64" viewBox="0 0 64 64" fill="none" xmlns="http://www.w3.org/2000/svg">
<path fill-rule="evenodd" clip-rule="evenodd" d="M31.7547 1.8667C45.9082 1.8667 64.9584 15.5415 61.7824 27.0572C59.3614 35.8352 44.7475 37.1334 31.7547 37.1334C18.762 37.1334 3.17072 34.2545 2.01582 27.0572C0.0675553 14.9158 17.6013 1.8667 31.7547 1.8667ZM30.5354 17.2689C33.3974 17.2689 35.7175 15.0132 35.7175 12.2308C35.7175 9.44829 33.3974 7.19266 30.5354 7.19266C27.6735 7.19266 25.3534 9.44829 25.3534 12.2308C25.3534 15.0132 27.6735 17.2689 30.5354 17.2689ZM48.0968 26.0497C48.0968 28.8322 45.7767 31.0878 42.9147 31.0878C40.0528 31.0878 37.7327 28.8322 37.7327 26.0497C37.7327 23.2672 40.0528 21.0116 42.9147 21.0116C45.7767 21.0116 48.0968 23.2672 48.0968 26.0497ZM13.5498 29.3603C16.4118 29.3603 18.7319 27.1047 18.7319 24.3222C18.7319 21.5398 16.4118 19.2841 13.5498 19.2841C10.6879 19.2841 8.3678 21.5398 8.3678 24.3222C8.3678 27.1047 10.6879 29.3603 13.5498 29.3603ZM31.8515 26.1936C31.8515 27.7836 30.5257 29.0725 28.8903 29.0725C27.2549 29.0725 25.9292 27.7836 25.9292 26.1936C25.9292 24.6036 27.2549 23.3147 28.8903 23.3147C30.5257 23.3147 31.8515 24.6036 31.8515 26.1936ZM15.9352 15.2537C17.5706 15.2537 18.8964 13.9648 18.8964 12.3748C18.8964 10.7848 17.5706 9.4959 15.9352 9.4959C14.2998 9.4959 12.974 10.7848 12.974 12.3748C12.974 13.9648 14.2998 15.2537 15.9352 15.2537ZM47.3976 12.087C47.3976 13.6769 46.0719 14.9659 44.4364 14.9659C42.801 14.9659 41.4753 13.6769 41.4753 12.087C41.4753 10.497 42.801 9.20805 44.4364 9.20805C46.0719 9.20805 47.3976 10.497 47.3976 12.087ZM53.9369 23.8905C55.5723 23.8905 56.8981 22.6016 56.8981 21.0116C56.8981 19.4216 55.5723 18.1327 53.9369 18.1327C52.3015 18.1327 50.9757 19.4216 50.9757 21.0116C50.9757 22.6016 52.3015 23.8905 53.9369 23.8905Z" fill="white" style="fill:white;fill:white;fill-opacity:1;"/>
<path d="M38.5346 40C33.4679 40.5333 30.2679 40.5333 24.9346 40C24.9346 40 11.6424 62.1333 32.1346 62.1333C51.9709 62.1333 38.5346 40 38.5346 40Z" fill="white" style="fill:white;fill:white;fill-opacity:1;"/>
</svg>
