<svg width="44" height="44" viewBox="0 0 44 44" fill="none" xmlns="http://www.w3.org/2000/svg">
<path fill-rule="evenodd" clip-rule="evenodd" d="M21.8313 1.28333C31.5618 1.28333 44.6589 10.6848 42.4754 18.6018C40.8109 24.6367 30.7639 25.5292 21.8313 25.5292C12.8988 25.5292 2.17984 23.5499 1.38584 18.6018C0.0464138 10.2546 12.1008 1.28333 21.8313 1.28333ZM20.9932 11.8723C22.9608 11.8723 24.5558 10.3216 24.5558 8.40861C24.5558 6.49566 22.9608 4.94492 20.9932 4.94492C19.0256 4.94492 17.4305 6.49566 17.4305 8.40861C17.4305 10.3216 19.0256 11.8723 20.9932 11.8723ZM33.0666 17.9091C33.0666 19.8221 31.4715 21.3728 29.5039 21.3728C27.5363 21.3728 25.9413 19.8221 25.9413 17.9091C25.9413 15.9962 27.5363 14.4455 29.5039 14.4455C31.4715 14.4455 33.0666 15.9962 33.0666 17.9091ZM9.31557 20.1852C11.2832 20.1852 12.8782 18.6345 12.8782 16.7215C12.8782 14.8086 11.2832 13.2578 9.31557 13.2578C7.34797 13.2578 5.75291 14.8086 5.75291 16.7215C5.75291 18.6345 7.34797 20.1852 9.31557 20.1852ZM21.898 18.008C21.898 19.1012 20.9865 19.9873 19.8622 19.9873C18.7378 19.9873 17.8264 19.1012 17.8264 18.008C17.8264 16.9149 18.7378 16.0288 19.8622 16.0288C20.9865 16.0288 21.898 16.9149 21.898 18.008ZM10.9555 10.4869C12.0798 10.4869 12.9913 9.60075 12.9913 8.50763C12.9913 7.41452 12.0798 6.52838 10.9555 6.52838C9.83114 6.52838 8.91968 7.41452 8.91968 8.50763C8.91968 9.60075 9.83114 10.4869 10.9555 10.4869ZM32.586 8.30974C32.586 9.40285 31.6745 10.289 30.5502 10.289C29.4258 10.289 28.5144 9.40285 28.5144 8.30974C28.5144 7.21663 29.4258 6.33049 30.5502 6.33049C31.6745 6.33049 32.586 7.21663 32.586 8.30974ZM37.0817 16.4247C38.206 16.4247 39.1175 15.5386 39.1175 14.4455C39.1175 13.3524 38.206 12.4662 37.0817 12.4662C35.9573 12.4662 35.0459 13.3524 35.0459 14.4455C35.0459 15.5386 35.9573 16.4247 37.0817 16.4247Z" fill="white" style="fill:white;fill:white;fill-opacity:1;"/>
<path d="M26.4926 27.5C23.0092 27.8667 20.8092 27.8667 17.1426 27.5C17.1426 27.5 8.00416 42.7167 22.0926 42.7167C35.7301 42.7167 26.4926 27.5 26.4926 27.5Z" fill="white" style="fill:white;fill:white;fill-opacity:1;"/>
</svg>
