<svg width="44" height="44" viewBox="0 0 44 44" fill="none" xmlns="http://www.w3.org/2000/svg">
<path d="M42.3561 18.6018C44.5333 10.6848 31.4742 1.28333 21.7718 1.28333C12.0695 1.28333 0.0499951 10.2546 1.38555 18.6018C2.17724 23.5499 12.8652 25.5292 21.7718 25.5292C30.6785 25.5292 40.6965 24.6367 42.3561 18.6018Z" fill="white" style="fill:white;fill:white;fill-opacity:1;"/>
<path fill-rule="evenodd" clip-rule="evenodd" d="M21.8313 1.28333C31.5618 1.28333 44.6589 10.6848 42.4754 18.6018C40.8109 24.6367 30.7639 25.5292 21.8313 25.5292C12.8988 25.5292 2.17984 23.5499 1.38584 18.6018C0.0464138 10.2546 12.1008 1.28333 21.8313 1.28333ZM20.9932 11.8724C22.9608 11.8724 24.5558 10.3216 24.5558 8.40869C24.5558 6.49575 22.9608 4.945 20.9932 4.945C19.0256 4.945 17.4305 6.49575 17.4305 8.40869C17.4305 10.3216 19.0256 11.8724 20.9932 11.8724ZM33.0666 17.9092C33.0666 19.8221 31.4715 21.3729 29.5039 21.3729C27.5363 21.3729 25.9413 19.8221 25.9413 17.9092C25.9413 15.9962 27.5363 14.4455 29.5039 14.4455C31.4715 14.4455 33.0666 15.9962 33.0666 17.9092ZM9.31557 20.1852C11.2832 20.1852 12.8782 18.6345 12.8782 16.7215C12.8782 14.8086 11.2832 13.2579 9.31557 13.2579C7.34797 13.2579 5.75291 14.8086 5.75291 16.7215C5.75291 18.6345 7.34797 20.1852 9.31557 20.1852ZM21.8979 18.0081C21.8979 19.1012 20.9864 19.9873 19.8621 19.9873C18.7378 19.9873 17.8263 19.1012 17.8263 18.0081C17.8263 16.915 18.7378 16.0288 19.8621 16.0288C20.9864 16.0288 21.8979 16.915 21.8979 18.0081ZM10.9555 10.4869C12.0798 10.4869 12.9913 9.60079 12.9913 8.50768C12.9913 7.41457 12.0798 6.52842 10.9555 6.52842C9.83114 6.52842 8.91968 7.41457 8.91968 8.50768C8.91968 9.60079 9.83114 10.4869 10.9555 10.4869ZM32.5859 8.30983C32.5859 9.40294 31.6744 10.2891 30.5501 10.2891C29.4257 10.2891 28.5143 9.40294 28.5143 8.30983C28.5143 7.21672 29.4257 6.33057 30.5501 6.33057C31.6744 6.33057 32.5859 7.21672 32.5859 8.30983ZM37.0817 16.4248C38.206 16.4248 39.1175 15.5386 39.1175 14.4455C39.1175 13.3524 38.206 12.4663 37.0817 12.4663C35.9573 12.4663 35.0459 13.3524 35.0459 14.4455C35.0459 15.5386 35.9573 16.4248 37.0817 16.4248Z" fill="#FF0000" style="fill:#FF0000;fill:color(display-p3 1.0000 0.0000 0.0000);fill-opacity:1;"/>
<path d="M26.4926 27.5C23.0092 27.8667 20.8092 27.8667 17.1426 27.5C17.1426 27.5 8.00416 42.7167 22.0926 42.7167C35.7301 42.7167 26.4926 27.5 26.4926 27.5Z" fill="white" style="fill:white;fill:white;fill-opacity:1;"/>
</svg>
